<?xml version="1.0" encoding="utf-8"?>
<!-- Generator: Adobe Illustrator 19.2.1, SVG Export Plug-In . SVG Version: 6.00 Build 0)  -->
<svg version="1.1" id="Layer_1" xmlns="http://www.w3.org/2000/svg" xmlns:xlink="http://www.w3.org/1999/xlink" x="0px" y="0px"
	 viewBox="0 0 48 48" style="enable-background:new 0 0 48 48;" xml:space="preserve">
<style type="text/css">
	.st0{fill:#FFFFFF;}
</style>
<g>
	<path class="st0" d="M17.1,31.9c-3.2-0.4-5.3-1.9-6.5-4.8c1,0,1.9-0.1,2.8-0.1c-3.3-1.3-5.1-3.5-5.4-7c1,0.3,2,0.5,2.9,0.8
		c-3-3.5-3.6-6.7-1.9-9.4c3.8,4.4,8.6,6.9,14.3,7.3c0.1-1.3,0.1-2.6,0.4-3.7c1.5-4.9,7.6-6.6,11.4-3.1c0.4,0.4,0.7,0.4,1.2,0.3
		c1.2-0.4,2.4-0.9,3.7-1.3c-0.5,1.5-1.5,2.6-2.7,3.7c1.2-0.3,2.3-0.6,3.5-0.9c0,0,0.1,0.1,0.1,0.1c-0.9,0.9-1.7,1.9-2.7,2.7
		c-0.5,0.5-0.7,0.9-0.8,1.6C37.3,26,33.8,32.4,26.4,36c-6.3,3.1-12.8,2.7-18.9-0.8c-0.1-0.1-0.2-0.2-0.5-0.3
		C10.8,35.1,14.1,34.2,17.1,31.9z"/>
</g>
</svg>
