<?xml version="1.0" encoding="utf-8"?>
<!-- Generator: Adobe Illustrator 19.2.1, SVG Export Plug-In . SVG Version: 6.00 Build 0)  -->
<svg version="1.1" id="Layer_1" xmlns="http://www.w3.org/2000/svg" xmlns:xlink="http://www.w3.org/1999/xlink" x="0px" y="0px"
	 viewBox="0 0 48 48" style="enable-background:new 0 0 48 48;" xml:space="preserve">
<style type="text/css">
	.st0{fill:#FFFFFF;}
</style>
<g>
	<path class="st0" d="M31,42.2c0.1,0,0.2,0,0.3,0c3,0,6,0,9,0c1.2,0,2-0.9,2-2.1c0-10.8,0-21.5,0-32.3c0-1.2-0.8-2.1-2.1-2.1
		c-10.8,0-21.6,0-32.3,0c-1.2,0-2.1,0.9-2.1,2.1c0,10.8,0,21.6,0,32.4c0,1.2,0.9,2,2,2c5.6,0,11.3,0,16.9,0c0.4,0,0.5-0.1,0.5-0.5
		c0-4.4,0-8.8,0-13.2c0-0.4-0.1-0.5-0.5-0.5c-1.3,0-2.5,0-3.8,0c-0.4,0-0.6-0.1-0.5-0.5c0-1.5,0-3,0-4.5c0-0.5,0.2-0.6,0.6-0.6
		c1.1,0,2.2,0,3.3,0c0.9,0,0.9,0,0.9-0.9c0-1.7,0-3.3,0.2-4.9c0.4-2.7,2-4.5,4.7-5.2c2.1-0.5,4.2-0.3,6.2-0.1c0.4,0,0.3,0.3,0.3,0.5
		c0,1.3,0,2.6,0,4c0,0.5-0.2,0.6-0.7,0.6c-1,0-2.1,0-3.1,0c-1,0.1-1.7,0.6-1.8,1.7C31,19.4,31.1,20.7,31,22c0,0.5,0.2,0.6,0.6,0.6
		c1.4,0,2.8,0,4.2,0c0.2,0,0.4,0,0.7,0.1c-0.2,1.9-0.5,3.7-0.7,5.6c-1.6,0-3.2,0-4.7,0C31,32.9,31,37.5,31,42.2z"/>
	<path class="st0" d="M31,42.2c0-4.7,0-9.3,0-14c1.6,0,3.1,0,4.7,0c0.2-1.9,0.5-3.7,0.7-5.6c-0.2,0-0.5-0.1-0.7-0.1
		c-1.4,0-2.8,0-4.2,0c-0.4,0-0.6-0.1-0.6-0.6c0.1-1.3,0-2.5,0.1-3.8c0.1-1,0.8-1.6,1.8-1.7c1-0.1,2.1-0.1,3.1,0
		c0.5,0,0.7-0.1,0.7-0.6c0-1.3,0-2.6,0-4c0-0.2,0.1-0.5-0.3-0.5c-2.1-0.2-4.2-0.4-6.2,0.1c-2.7,0.7-4.3,2.5-4.7,5.2
		c-0.2,1.6-0.2,3.3-0.2,4.9c0,0.9,0,0.9-0.9,0.9c-1.1,0-2.2,0-3.3,0c-0.4,0-0.6,0.1-0.6,0.6c0,1.5,0,3,0,4.5c0,0.4,0.1,0.5,0.5,0.5
		c1.3,0,2.5,0,3.8,0c0.4,0,0.5,0.1,0.5,0.5c0,4.4,0,8.8,0,13.2c0,0.4-0.1,0.5-0.5,0.5c-5.6,0-11.3,0-16.9,0c-1.2,0-2-0.9-2-2
		c0-10.8,0-21.6,0-32.4c0-1.2,0.9-2.1,2.1-2.1c10.8,0,21.6,0,32.3,0c1.2,0,2.1,0.9,2.1,2.1c0,10.8,0,21.5,0,32.3
		c0,1.2-0.8,2.1-2,2.1c-3,0-6,0-9,0C31.2,42.2,31.2,42.2,31,42.2z"/>
</g>
</svg>
