<?xml version="1.0" encoding="utf-8"?>
<!-- Generator: Adobe Illustrator 19.2.1, SVG Export Plug-In . SVG Version: 6.00 Build 0)  -->
<svg version="1.1" id="Layer_1" xmlns="http://www.w3.org/2000/svg" xmlns:xlink="http://www.w3.org/1999/xlink" x="0px" y="0px"
	 viewBox="0 0 48 48" style="enable-background:new 0 0 48 48;" xml:space="preserve">
<style type="text/css">
	.st0{fill:#FFFFFF;}
</style>
<g>
	<path class="st0" d="M23,25.5l-1.4-1l0,0c-0.4-0.3-0.8-0.6-0.8-1.1c0-0.5,0.4-0.9,0.8-1.3l0,0c1.5-1.1,3.4-2.6,3.4-5.6
		c0-2-0.9-3.4-1.8-4.4h1l4.6-2.5H18.8c-1.9,0-4.7,0.2-7.1,2.2l0,0C10,13,9,15,9,17c0,1.6,0.7,3.2,1.8,4.3c1.6,1.6,3.6,2,5.1,2
		c0.1,0,0.2,0,0.3,0c-0.1,0.2-0.1,0.5-0.1,0.8c0,0.8,0.3,1.5,0.6,2c-1.8,0.1-4.4,0.5-6.4,1.7c-3,1.7-3.2,4.2-3.2,4.9
		c0,2.9,2.7,5.8,8.7,5.8c6.9,0,10.5-3.8,10.5-7.5C26.3,28.2,24.6,26.8,23,25.5z M13.5,15.2c0-1,0.2-1.8,0.7-2.3c0.5-0.6,1.4-1,2.2-1
		c1.5,0,2.5,1.1,3,2.1c0.7,1.2,1.1,2.7,1.1,4c0,0.4,0,1.5-0.8,2.2c-0.5,0.5-1.4,0.9-2.2,0.9c-1.5,0-2.5-1.1-3.1-2
		C13.8,17.8,13.5,16.2,13.5,15.2z M22.6,32.4c0,2.1-1.9,3.4-5,3.4c-3.6,0-6.1-1.6-6.1-3.9c0-2,1.6-2.8,2.9-3.2
		c1.4-0.5,3.3-0.6,3.8-0.6c0.3,0,0.5,0,0.7,0C21.7,30.1,22.6,30.9,22.6,32.4z"/>
	<polygon class="st0" points="35,15.4 35,9.5 32.5,9.5 32.5,15.4 26.4,15.4 26.4,18 32.5,18 32.5,24.1 35,24.1 35,18 40.9,18 
		40.9,15.4 	"/>
</g>
</svg>
