<?xml version="1.0" encoding="utf-8"?>
<!-- Generator: Adobe Illustrator 19.2.1, SVG Export Plug-In . SVG Version: 6.00 Build 0)  -->
<svg version="1.1" id="Layer_1" xmlns="http://www.w3.org/2000/svg" xmlns:xlink="http://www.w3.org/1999/xlink" x="0px" y="0px"
	 viewBox="0 0 48 48" style="enable-background:new 0 0 48 48;" xml:space="preserve">
<style type="text/css">
	.st0{fill:#FFFFFF;}
</style>
<path class="st0" d="M5.9,15.5c1.6-2.3,3-2.4,5-0.4c4,4,7.9,7.9,11.9,11.9c0.4,0.4,0.7,0.7,1.2,1.1c0.4-0.4,0.8-0.7,1.2-1.1
	c3.9-3.9,7.9-7.9,11.8-11.8c0.4-0.4,0.8-0.8,1.3-1.1c1.1-0.7,2.2-0.6,3.1,0.4c0.8,0.9,1,1.9,0.4,3c-0.3,0.5-0.7,0.9-1.1,1.3
	c-4.7,4.7-9.4,9.4-14.1,14.1c-1.9,1.9-3.1,1.9-5,0c-4.7-4.7-9.4-9.4-14.1-14.1c-0.6-0.6-1-1.2-1.5-1.8C5.9,16.5,5.9,16,5.9,15.5z"/>
</svg>
